<?xml version="1.0" standalone="no"?>
<!DOCTYPE svg PUBLIC "-//W3C//DTD SVG 20010904//EN"
 "http://www.w3.org/TR/2001/REC-SVG-20010904/DTD/svg10.dtd">
<svg version="1.0" xmlns="http://www.w3.org/2000/svg"
 width="192.000000pt" height="192.000000pt" viewBox="0 0 192.000000 192.000000"
 preserveAspectRatio="xMidYMid meet">
<metadata>
Created by potrace 1.14, written by Peter Selinger 2001-2017
</metadata>
<g transform="translate(0.000000,192.000000) scale(0.100000,-0.100000)"
fill="#000000" stroke="none">
<path d="M0 960 l0 -960 960 0 960 0 0 960 0 960 -960 0 -960 0 0 -960z m989
634 c25 -15 31 -15 57 -2 29 15 32 13 309 -147 l280 -162 0 -329 0 -328 -280
-162 c-278 -161 -280 -162 -309 -147 -27 14 -32 14 -58 -1 -26 -16 -30 -16
-58 1 -25 14 -34 15 -50 5 -11 -6 -25 -12 -31 -12 -6 0 -137 72 -290 161
l-279 161 0 322 0 323 280 161 c154 89 284 162 290 162 6 0 19 -6 30 -12 16
-11 25 -10 47 4 34 21 29 21 62 2z"/>
<path d="M838 1232 l-117 -67 -1 -210 0 -210 120 -69 c92 -52 125 -67 139 -60
10 5 66 36 124 69 l107 60 -3 210 -2 209 -118 68 c-66 37 -122 68 -125 68 -4
-1 -60 -31 -124 -68z"/>
</g>
</svg>
